<?xml version="1.0" standalone="no"?>
<!DOCTYPE svg PUBLIC "-//W3C//DTD SVG 20010904//EN"
 "http://www.w3.org/TR/2001/REC-SVG-20010904/DTD/svg10.dtd">
<svg version="1.0" xmlns="http://www.w3.org/2000/svg"
 width="700.000000pt" height="700.000000pt" viewBox="0 0 700.000000 700.000000"
 preserveAspectRatio="xMidYMid meet">
<metadata>
Created by potrace 1.14, written by Peter Selinger 2001-2017
</metadata>
<g transform="translate(0.000000,700.000000) scale(0.100000,-0.100000)"
fill="#000000" stroke="none">
<path d="M2260 5609 l-1240 -1240 0 -869 0 -869 1240 -1240 1240 -1240 1240
1240 1240 1240 0 869 0 869 -1240 1240 -1240 1240 -1240 -1240z m3298 -1233
c1 -2 -630 -636 -663 -665 -2 -2 -35 28 -73 67 -54 55 -73 83 -91 134 -92 253
-279 490 -516 654 -49 33 -226 120 -284 139 -46 15 -70 34 -170 134 l-116 117
1 659 c1 363 2 663 3 666 1 4 1890 -1881 1909 -1905z m-2204 1240 l0 -664
-116 -113 c-106 -104 -121 -116 -179 -133 -79 -24 -245 -109 -319 -161 -229
-165 -399 -391 -490 -654 -18 -51 -35 -77 -82 -124 -33 -32 -61 -57 -63 -55
-7 6 -528 525 -598 596 l-67 68 952 952 c523 524 954 952 957 952 3 0 6 -299
5 -664z m-1744 -1826 l290 -290 -290 -290 c-160 -160 -292 -290 -294 -290 -2
0 -4 261 -4 580 1 319 2 580 5 580 2 0 134 -131 293 -290z m4078 -290 c0 -319
-2 -580 -4 -580 -2 0 -135 130 -294 290 l-290 290 288 289 c158 159 290 290
294 290 3 1 6 -260 6 -579z m-3528 -259 c43 -43 53 -61 71 -128 93 -341 334
-637 659 -811 76 -41 267 -112 300 -112 10 0 51 -32 91 -71 l73 -70 0 -669 c1
-368 0 -668 -1 -667 -6 4 -1895 1893 -1904 1903 -6 7 101 121 323 342 183 183
334 332 336 332 1 0 25 -22 52 -49z m3064 -278 c180 -181 327 -332 328 -337 1
-12 -1893 -1907 -1901 -1902 -3 2 -6 301 -6 663 l1 659 65 66 c57 58 73 68
129 84 444 122 802 475 921 910 17 64 28 83 72 129 29 30 55 54 58 54 3 1 153
-146 333 -326z"/>
</g>
</svg>
